<?xml version="1.0" standalone="no"?>
<!DOCTYPE svg PUBLIC "-//W3C//DTD SVG 20010904//EN"
 "http://www.w3.org/TR/2001/REC-SVG-20010904/DTD/svg10.dtd">
<svg version="1.0" xmlns="http://www.w3.org/2000/svg"
 width="260.000000pt" height="260.000000pt" viewBox="0 0 260.000000 260.000000"
 preserveAspectRatio="xMidYMid meet">
<metadata>
Created by potrace 1.11, written by Peter Selinger 2001-2013
</metadata>
<g transform="translate(0.000000,260.000000) scale(0.100000,-0.100000)"
fill="#000000" stroke="none">
<path d="M857 2130 c-211 -89 -427 -302 -552 -544 -62 -118 -106 -254 -140
-426 -34 -176 -39 -225 -40 -365 0 -162 17 -224 78 -285 31 -30 59 -46 110
-61 61 -19 86 -21 275 -16 242 6 287 10 390 40 132 39 201 96 242 203 35 94
43 187 43 509 1 299 -12 504 -33 530 -19 24 -14 55 14 84 l30 31 0 163 0 162
-24 3 -25 3 1 -158 c1 -87 -1 -162 -4 -167 -2 -4 -18 32 -33 82 -35 109 -95
203 -144 226 -47 23 -113 18 -188 -14z"/>
<path d="M1320 1994 l0 -166 30 -28 c29 -27 39 -63 21 -74 -5 -3 -12 -36 -16
-73 -4 -38 -9 -77 -12 -88 -9 -39 -10 -621 -1 -710 17 -174 64 -272 161 -333
108 -68 249 -91 552 -89 l220 2 58 29 c116 56 153 153 144 368 -3 73 -8 147
-11 163 -3 17 -11 59 -17 95 -54 318 -140 525 -299 721 -188 232 -465 391
-590 339 -57 -24 -124 -133 -156 -253 -10 -36 -21 -64 -26 -61 -4 3 -8 77 -8
165 l0 159 -25 0 -25 0 0 -166z"/>
</g>
</svg>
